<mxfile host="65bd71144e" border="50" scale="3" compressed="false" locked="false">
    <diagram name="Blank" id="YmL12bMKpDGza6XwsDPr">
        <mxGraphModel dx="1818" dy="1943" grid="0" gridSize="10" guides="1" tooltips="1" connect="1" arrows="1" fold="1" page="0" pageScale="1" pageWidth="827" pageHeight="1169" background="none" math="1" shadow="0">
            <root>
                <mxCell id="X5NqExCQtvZxIxQ7pmgY-0"/>
                <mxCell id="1" parent="X5NqExCQtvZxIxQ7pmgY-0"/>
                <mxCell id="XCyVwGTOSvH6szPwagf7-6" style="edgeStyle=orthogonalEdgeStyle;rounded=0;orthogonalLoop=1;jettySize=auto;html=1;entryX=0;entryY=0.5;entryDx=0;entryDy=0;curved=1;exitX=0.5;exitY=0;exitDx=0;exitDy=0;" parent="1" source="XCyVwGTOSvH6szPwagf7-1" target="XCyVwGTOSvH6szPwagf7-2" edge="1">
                    <mxGeometry relative="1" as="geometry"/>
                </mxCell>
                <mxCell id="XCyVwGTOSvH6szPwagf7-7" style="edgeStyle=orthogonalEdgeStyle;rounded=0;orthogonalLoop=1;jettySize=auto;html=1;curved=1;entryX=0;entryY=0.5;entryDx=0;entryDy=0;" parent="1" source="XCyVwGTOSvH6szPwagf7-1" target="XCyVwGTOSvH6szPwagf7-3" edge="1">
                    <mxGeometry relative="1" as="geometry"/>
                </mxCell>
                <mxCell id="XCyVwGTOSvH6szPwagf7-8" style="edgeStyle=orthogonalEdgeStyle;rounded=0;orthogonalLoop=1;jettySize=auto;html=1;entryX=0;entryY=0.5;entryDx=0;entryDy=0;curved=1;" parent="1" source="XCyVwGTOSvH6szPwagf7-1" target="XCyVwGTOSvH6szPwagf7-4" edge="1">
                    <mxGeometry relative="1" as="geometry"/>
                </mxCell>
                <mxCell id="XCyVwGTOSvH6szPwagf7-9" style="edgeStyle=orthogonalEdgeStyle;rounded=0;orthogonalLoop=1;jettySize=auto;html=1;curved=1;entryX=0;entryY=0.5;entryDx=0;entryDy=0;exitX=0.5;exitY=1;exitDx=0;exitDy=0;" parent="1" source="XCyVwGTOSvH6szPwagf7-1" target="XCyVwGTOSvH6szPwagf7-5" edge="1">
                    <mxGeometry relative="1" as="geometry"/>
                </mxCell>
                <mxCell id="XCyVwGTOSvH6szPwagf7-1" value="&lt;span style=&quot;font-family: &amp;quot;YS Text&amp;quot;, sans-serif; font-size: 18px; text-align: start; white-space-collapse: preserve;&quot;&gt;Безопасность данных&lt;/span&gt;" style="rounded=0;whiteSpace=wrap;html=1;fillColor=#e1d5e7;strokeColor=#9673a6;" parent="1" vertex="1">
                    <mxGeometry x="60" y="190" width="120" height="60" as="geometry"/>
                </mxCell>
                <mxCell id="XCyVwGTOSvH6szPwagf7-14" style="edgeStyle=orthogonalEdgeStyle;rounded=0;orthogonalLoop=1;jettySize=auto;html=1;entryX=0;entryY=0.5;entryDx=0;entryDy=0;" parent="1" source="XCyVwGTOSvH6szPwagf7-2" target="XCyVwGTOSvH6szPwagf7-10" edge="1">
                    <mxGeometry relative="1" as="geometry"/>
                </mxCell>
                <mxCell id="XCyVwGTOSvH6szPwagf7-2" value="Публичные данные" style="rounded=0;whiteSpace=wrap;html=1;fillColor=#d5e8d4;strokeColor=#82b366;" parent="1" vertex="1">
                    <mxGeometry x="260" y="-430" width="120" height="60" as="geometry"/>
                </mxCell>
                <mxCell id="XCyVwGTOSvH6szPwagf7-15" style="edgeStyle=orthogonalEdgeStyle;rounded=0;orthogonalLoop=1;jettySize=auto;html=1;" parent="1" source="XCyVwGTOSvH6szPwagf7-3" target="XCyVwGTOSvH6szPwagf7-11" edge="1">
                    <mxGeometry relative="1" as="geometry"/>
                </mxCell>
                <mxCell id="XCyVwGTOSvH6szPwagf7-3" value="Внутренние данные" style="rounded=0;whiteSpace=wrap;html=1;fillColor=#fff2cc;strokeColor=#d6b656;" parent="1" vertex="1">
                    <mxGeometry x="260" y="-20" width="120" height="60" as="geometry"/>
                </mxCell>
                <mxCell id="XCyVwGTOSvH6szPwagf7-16" style="edgeStyle=orthogonalEdgeStyle;rounded=0;orthogonalLoop=1;jettySize=auto;html=1;entryX=0;entryY=0.5;entryDx=0;entryDy=0;" parent="1" source="XCyVwGTOSvH6szPwagf7-4" target="XCyVwGTOSvH6szPwagf7-12" edge="1">
                    <mxGeometry relative="1" as="geometry"/>
                </mxCell>
                <mxCell id="XCyVwGTOSvH6szPwagf7-4" value="Конфиденциальные данные" style="rounded=0;whiteSpace=wrap;html=1;fillColor=#ffe6cc;strokeColor=#d79b00;" parent="1" vertex="1">
                    <mxGeometry x="260" y="390" width="120" height="60" as="geometry"/>
                </mxCell>
                <mxCell id="XCyVwGTOSvH6szPwagf7-5" value="Секретные данные" style="rounded=0;whiteSpace=wrap;html=1;fillColor=#f8cecc;strokeColor=#b85450;" parent="1" vertex="1">
                    <mxGeometry x="260" y="750" width="120" height="60" as="geometry"/>
                </mxCell>
                <mxCell id="4" style="edgeStyle=orthogonalEdgeStyle;html=1;curved=1;entryX=0;entryY=0.5;entryDx=0;entryDy=0;" edge="1" parent="1" source="XCyVwGTOSvH6szPwagf7-10" target="2">
                    <mxGeometry relative="1" as="geometry"/>
                </mxCell>
                <mxCell id="7" style="edgeStyle=orthogonalEdgeStyle;html=1;entryX=0;entryY=0.5;entryDx=0;entryDy=0;curved=1;" edge="1" parent="1" source="XCyVwGTOSvH6szPwagf7-10" target="6">
                    <mxGeometry relative="1" as="geometry"/>
                </mxCell>
                <mxCell id="11" style="edgeStyle=orthogonalEdgeStyle;html=1;entryX=0;entryY=0.5;entryDx=0;entryDy=0;curved=1;" edge="1" parent="1" source="XCyVwGTOSvH6szPwagf7-10" target="10">
                    <mxGeometry relative="1" as="geometry"/>
                </mxCell>
                <mxCell id="15" style="edgeStyle=orthogonalEdgeStyle;html=1;entryX=0;entryY=0.5;entryDx=0;entryDy=0;curved=1;" edge="1" parent="1" source="XCyVwGTOSvH6szPwagf7-10" target="14">
                    <mxGeometry relative="1" as="geometry"/>
                </mxCell>
                <mxCell id="XCyVwGTOSvH6szPwagf7-10" value="Рекламные материалы, контент онлайн-витрины продаж (предложения по недвижимости, описание недвижимости и тд), контент витрины сервисов для собственников (сервисы, предложения, услуги).&amp;nbsp;" style="rounded=0;whiteSpace=wrap;html=1;" parent="1" vertex="1">
                    <mxGeometry x="470" y="-450" width="330" height="100" as="geometry"/>
                </mxCell>
                <mxCell id="19" style="edgeStyle=orthogonalEdgeStyle;html=1;entryX=0;entryY=0.5;entryDx=0;entryDy=0;curved=1;" edge="1" parent="1" source="XCyVwGTOSvH6szPwagf7-11" target="18">
                    <mxGeometry relative="1" as="geometry"/>
                </mxCell>
                <mxCell id="23" style="edgeStyle=orthogonalEdgeStyle;html=1;entryX=0;entryY=0.5;entryDx=0;entryDy=0;curved=1;" edge="1" parent="1" source="XCyVwGTOSvH6szPwagf7-11" target="22">
                    <mxGeometry relative="1" as="geometry"/>
                </mxCell>
                <mxCell id="27" style="edgeStyle=orthogonalEdgeStyle;html=1;entryX=0;entryY=0.5;entryDx=0;entryDy=0;curved=1;" edge="1" parent="1" source="XCyVwGTOSvH6szPwagf7-11" target="26">
                    <mxGeometry relative="1" as="geometry"/>
                </mxCell>
                <mxCell id="31" style="edgeStyle=orthogonalEdgeStyle;html=1;entryX=0;entryY=0.5;entryDx=0;entryDy=0;curved=1;" edge="1" parent="1" source="XCyVwGTOSvH6szPwagf7-11" target="30">
                    <mxGeometry relative="1" as="geometry"/>
                </mxCell>
                <mxCell id="35" style="edgeStyle=orthogonalEdgeStyle;html=1;entryX=0;entryY=0.5;entryDx=0;entryDy=0;curved=1;" edge="1" parent="1" source="XCyVwGTOSvH6szPwagf7-11" target="34">
                    <mxGeometry relative="1" as="geometry"/>
                </mxCell>
                <mxCell id="XCyVwGTOSvH6szPwagf7-11" value="Объекты недвижимости и более непубличная информация о них, данные онлайн-туров без привязки к клиентам, услуги ЖКХ для собственников (неперсонализированные); внутренние отчеты, тестовые данные, неутвержденные планы по недвижимости" style="rounded=0;whiteSpace=wrap;html=1;" parent="1" vertex="1">
                    <mxGeometry x="470" y="-45" width="330" height="110" as="geometry"/>
                </mxCell>
                <mxCell id="53" style="edgeStyle=orthogonalEdgeStyle;html=1;entryX=0;entryY=0.5;entryDx=0;entryDy=0;curved=1;" edge="1" parent="1" source="XCyVwGTOSvH6szPwagf7-12" target="39">
                    <mxGeometry relative="1" as="geometry"/>
                </mxCell>
                <mxCell id="54" style="edgeStyle=orthogonalEdgeStyle;html=1;entryX=0;entryY=0.5;entryDx=0;entryDy=0;curved=1;" edge="1" parent="1" source="XCyVwGTOSvH6szPwagf7-12" target="42">
                    <mxGeometry relative="1" as="geometry"/>
                </mxCell>
                <mxCell id="55" style="edgeStyle=orthogonalEdgeStyle;html=1;entryX=0;entryY=0.5;entryDx=0;entryDy=0;curved=1;" edge="1" parent="1" source="XCyVwGTOSvH6szPwagf7-12" target="45">
                    <mxGeometry relative="1" as="geometry"/>
                </mxCell>
                <mxCell id="57" style="edgeStyle=orthogonalEdgeStyle;html=1;entryX=0;entryY=0.5;entryDx=0;entryDy=0;curved=1;" edge="1" parent="1" source="XCyVwGTOSvH6szPwagf7-12" target="51">
                    <mxGeometry relative="1" as="geometry"/>
                </mxCell>
                <mxCell id="XCyVwGTOSvH6szPwagf7-12" value="Клиентские персональные данные (ФИО, возраст, семейное положение и тд), данные собственников, данные по жилью собственников, данные по услугам ЖКХ собственников, персонализированные данные онлайн-туров; финансовые отчеты; данные о пользовательском поведении; контрактные данные между ProdDevelopment и партнерами (без торговых секретов); служебная переписка, внутренние инструкции" style="rounded=0;whiteSpace=wrap;html=1;" parent="1" vertex="1">
                    <mxGeometry x="470" y="360" width="330" height="120" as="geometry"/>
                </mxCell>
                <mxCell id="70" style="edgeStyle=orthogonalEdgeStyle;html=1;entryX=0;entryY=0.5;entryDx=0;entryDy=0;curved=1;" edge="1" parent="1" source="XCyVwGTOSvH6szPwagf7-13" target="59">
                    <mxGeometry relative="1" as="geometry"/>
                </mxCell>
                <mxCell id="71" style="edgeStyle=orthogonalEdgeStyle;html=1;entryX=0;entryY=0.5;entryDx=0;entryDy=0;curved=1;" edge="1" parent="1" source="XCyVwGTOSvH6szPwagf7-13" target="62">
                    <mxGeometry relative="1" as="geometry"/>
                </mxCell>
                <mxCell id="72" style="edgeStyle=orthogonalEdgeStyle;html=1;entryX=0;entryY=0.5;entryDx=0;entryDy=0;curved=1;" edge="1" parent="1" source="XCyVwGTOSvH6szPwagf7-13" target="65">
                    <mxGeometry relative="1" as="geometry"/>
                </mxCell>
                <mxCell id="73" style="edgeStyle=orthogonalEdgeStyle;html=1;entryX=0;entryY=0.5;entryDx=0;entryDy=0;curved=1;" edge="1" parent="1" source="XCyVwGTOSvH6szPwagf7-13" target="68">
                    <mxGeometry relative="1" as="geometry"/>
                </mxCell>
                <mxCell id="XCyVwGTOSvH6szPwagf7-13" value="Данные аутентификации клиентов и собственников, данные по онлайн-сделкам, данные платежных систем (номера счетов, банковских карт), данные аутентификации менеджеров, бухгалтеров и других сотрудников компании; торговые секреты; стратегия компании; закрытые архитектурные схемы; токены, ключи доступа, пароли, сертификаты; доступ к CI/CD; ИБ-политики, ИБ-инциденты" style="rounded=0;whiteSpace=wrap;html=1;" parent="1" vertex="1">
                    <mxGeometry x="470" y="720" width="330" height="120" as="geometry"/>
                </mxCell>
                <mxCell id="XCyVwGTOSvH6szPwagf7-17" style="edgeStyle=orthogonalEdgeStyle;rounded=0;orthogonalLoop=1;jettySize=auto;html=1;" parent="1" source="XCyVwGTOSvH6szPwagf7-5" target="XCyVwGTOSvH6szPwagf7-13" edge="1">
                    <mxGeometry relative="1" as="geometry"/>
                </mxCell>
                <mxCell id="5" style="edgeStyle=none;html=1;entryX=0;entryY=0.5;entryDx=0;entryDy=0;" edge="1" parent="1" source="2" target="3">
                    <mxGeometry relative="1" as="geometry"/>
                </mxCell>
                <mxCell id="2" value="Искажение данных&lt;br&gt;(значительный риск)" style="rounded=0;whiteSpace=wrap;html=1;fillColor=#fa6800;fontColor=#000000;strokeColor=#C73500;" vertex="1" parent="1">
                    <mxGeometry x="920" y="-560" width="150" height="60" as="geometry"/>
                </mxCell>
                <mxCell id="3" value="Подмена информации на витрине (цены, наличие), публичных новостях или договорах нанесет ущерб репутации, введет клиентов в заблуждение, может иметь юридические последствия" style="rounded=0;whiteSpace=wrap;html=1;" vertex="1" parent="1">
                    <mxGeometry x="1150" y="-570" width="330" height="80" as="geometry"/>
                </mxCell>
                <mxCell id="9" style="edgeStyle=none;html=1;" edge="1" parent="1" source="6" target="8">
                    <mxGeometry relative="1" as="geometry"/>
                </mxCell>
                <mxCell id="6" value="Потеря данных&lt;br&gt;(незначительный риск)" style="rounded=0;whiteSpace=wrap;html=1;fillColor=#e3c800;fontColor=#000000;strokeColor=#B09500;" vertex="1" parent="1">
                    <mxGeometry x="920" y="-470" width="150" height="60" as="geometry"/>
                </mxCell>
                <mxCell id="8" value="Публичные данные легко восстановить из резервных копий или переопубликовать." style="rounded=0;whiteSpace=wrap;html=1;" vertex="1" parent="1">
                    <mxGeometry x="1150" y="-470" width="330" height="60" as="geometry"/>
                </mxCell>
                <mxCell id="13" style="edgeStyle=none;html=1;entryX=0;entryY=0.5;entryDx=0;entryDy=0;" edge="1" parent="1" source="10" target="12">
                    <mxGeometry relative="1" as="geometry"/>
                </mxCell>
                <mxCell id="10" value="Некачественные данные&lt;br&gt;(значительный риск)" style="rounded=0;whiteSpace=wrap;html=1;fillColor=#fa6800;fontColor=#000000;strokeColor=#C73500;" vertex="1" parent="1">
                    <mxGeometry x="920" y="-380" width="150" height="60" as="geometry"/>
                </mxCell>
                <mxCell id="12" value="Неактуальные цены, ложная информация о наличии квартир, ошибки в публичных документах приведут к недовольству клиентов, потере продаж, репутационному ущербу" style="rounded=0;whiteSpace=wrap;html=1;" vertex="1" parent="1">
                    <mxGeometry x="1150" y="-380" width="330" height="60" as="geometry"/>
                </mxCell>
                <mxCell id="17" style="edgeStyle=none;html=1;entryX=0;entryY=0.5;entryDx=0;entryDy=0;" edge="1" parent="1" source="14" target="16">
                    <mxGeometry relative="1" as="geometry"/>
                </mxCell>
                <mxCell id="14" value="Обесценивание данных&lt;br&gt;(значительный риск)" style="rounded=0;whiteSpace=wrap;html=1;fillColor=#fa6800;fontColor=#000000;strokeColor=#C73500;" vertex="1" parent="1">
                    <mxGeometry x="920" y="-290" width="150" height="60" as="geometry"/>
                </mxCell>
                <mxCell id="16" value="Устаревшая неактуальная информация снижает доверие клиентов" style="rounded=0;whiteSpace=wrap;html=1;" vertex="1" parent="1">
                    <mxGeometry x="1150" y="-290" width="330" height="60" as="geometry"/>
                </mxCell>
                <mxCell id="21" style="edgeStyle=none;html=1;" edge="1" parent="1" source="18" target="20">
                    <mxGeometry relative="1" as="geometry"/>
                </mxCell>
                <mxCell id="18" value="Искажение данных&lt;br&gt;(значительный риск)" style="rounded=0;whiteSpace=wrap;html=1;fillColor=#fa6800;fontColor=#000000;strokeColor=#C73500;" vertex="1" parent="1">
                    <mxGeometry x="920" y="-200" width="150" height="60" as="geometry"/>
                </mxCell>
                <mxCell id="20" value="Подмена данных в каталогах, отчетах, аналитических наборах ведет к принятию неверных управленческих решений, срыву сроков, внутреннему хаосу" style="rounded=0;whiteSpace=wrap;html=1;" vertex="1" parent="1">
                    <mxGeometry x="1150" y="-200" width="330" height="60" as="geometry"/>
                </mxCell>
                <mxCell id="25" style="edgeStyle=none;html=1;entryX=0;entryY=0.5;entryDx=0;entryDy=0;" edge="1" parent="1" source="22" target="24">
                    <mxGeometry relative="1" as="geometry"/>
                </mxCell>
                <mxCell id="22" value="Потеря данных&lt;br&gt;(значительный риск)" style="rounded=0;whiteSpace=wrap;html=1;fillColor=#fa6800;fontColor=#000000;strokeColor=#C73500;" vertex="1" parent="1">
                    <mxGeometry x="920" y="-110" width="150" height="60" as="geometry"/>
                </mxCell>
                <mxCell id="24" value="Потеря внутренней документации, логов, данных о ремонте нарушит процессы, затруднит расследование инцидентов, анализ эффективности" style="rounded=0;whiteSpace=wrap;html=1;" vertex="1" parent="1">
                    <mxGeometry x="1150" y="-110" width="330" height="60" as="geometry"/>
                </mxCell>
                <mxCell id="29" style="edgeStyle=none;html=1;entryX=0;entryY=0.5;entryDx=0;entryDy=0;" edge="1" parent="1" source="26" target="28">
                    <mxGeometry relative="1" as="geometry"/>
                </mxCell>
                <mxCell id="26" value="Некачественные данные&lt;br&gt;(значительный риск)" style="rounded=0;whiteSpace=wrap;html=1;fillColor=#fa6800;fontColor=#000000;strokeColor=#C73500;" vertex="1" parent="1">
                    <mxGeometry x="920" y="-20" width="150" height="60" as="geometry"/>
                </mxCell>
                <mxCell id="28" value="Ошибки в каталогах, данных для BI, планах ремонта ведут к неэффективности, ошибкам планирования, некорректной отчетности" style="rounded=0;whiteSpace=wrap;html=1;" vertex="1" parent="1">
                    <mxGeometry x="1150" y="-20" width="330" height="60" as="geometry"/>
                </mxCell>
                <mxCell id="33" style="edgeStyle=none;html=1;" edge="1" parent="1" source="30" target="32">
                    <mxGeometry relative="1" as="geometry"/>
                </mxCell>
                <mxCell id="30" value="Обесценивание данных&lt;br&gt;(незначительный риск)" style="rounded=0;whiteSpace=wrap;html=1;fillColor=#e3c800;fontColor=#000000;strokeColor=#B09500;" vertex="1" parent="1">
                    <mxGeometry x="920" y="70" width="150" height="60" as="geometry"/>
                </mxCell>
                <mxCell id="32" value="Актуальность внутренних данных важна, но их старение обычно менее критично, чем для других категорий" style="rounded=0;whiteSpace=wrap;html=1;" vertex="1" parent="1">
                    <mxGeometry x="1150" y="70" width="330" height="60" as="geometry"/>
                </mxCell>
                <mxCell id="37" style="edgeStyle=none;html=1;entryX=0;entryY=0.5;entryDx=0;entryDy=0;" edge="1" parent="1" source="34" target="36">
                    <mxGeometry relative="1" as="geometry"/>
                </mxCell>
                <mxCell id="34" value="Утечка данных&lt;br&gt;(значительный риск)" style="rounded=0;whiteSpace=wrap;html=1;fillColor=#fa6800;fontColor=#000000;strokeColor=#C73500;" vertex="1" parent="1">
                    <mxGeometry x="920" y="160" width="150" height="60" as="geometry"/>
                </mxCell>
                <mxCell id="36" value="&amp;nbsp;Раскрытие внутренних процессов, слабых мест архитектуры, планов ремонта может дать преимущество конкурентам и использоваться для атак" style="rounded=0;whiteSpace=wrap;html=1;" vertex="1" parent="1">
                    <mxGeometry x="1150" y="160" width="330" height="60" as="geometry"/>
                </mxCell>
                <mxCell id="38" style="edgeStyle=none;html=1;" edge="1" parent="1" source="39" target="40">
                    <mxGeometry relative="1" as="geometry"/>
                </mxCell>
                <mxCell id="39" value="Искажение данных&lt;br&gt;(критический риск)" style="rounded=0;whiteSpace=wrap;html=1;fillColor=#e51400;fontColor=#ffffff;strokeColor=#B20000;" vertex="1" parent="1">
                    <mxGeometry x="920" y="255" width="150" height="60" as="geometry"/>
                </mxCell>
                <mxCell id="40" value="Ошибки в данных о сделках могут привести к финансовым потерям и юридическим проблемам" style="rounded=0;whiteSpace=wrap;html=1;" vertex="1" parent="1">
                    <mxGeometry x="1150" y="255" width="330" height="60" as="geometry"/>
                </mxCell>
                <mxCell id="41" style="edgeStyle=none;html=1;entryX=0;entryY=0.5;entryDx=0;entryDy=0;" edge="1" parent="1" source="42" target="43">
                    <mxGeometry relative="1" as="geometry"/>
                </mxCell>
                <mxCell id="42" value="Потеря данных&lt;br&gt;(значительный риск)" style="rounded=0;whiteSpace=wrap;html=1;fillColor=#fa6800;fontColor=#000000;strokeColor=#C73500;" vertex="1" parent="1">
                    <mxGeometry x="920" y="345" width="150" height="60" as="geometry"/>
                </mxCell>
                <mxCell id="43" value="Потеря данных о сделках, платежах, настройках Умного дома, профилей CRM парализует операционную деятельность, вызовет недовольство клиентов/собственников, финансовые потери" style="rounded=0;whiteSpace=wrap;html=1;" vertex="1" parent="1">
                    <mxGeometry x="1150" y="345" width="330" height="60" as="geometry"/>
                </mxCell>
                <mxCell id="44" style="edgeStyle=none;html=1;entryX=0;entryY=0.5;entryDx=0;entryDy=0;" edge="1" parent="1" source="45" target="46">
                    <mxGeometry relative="1" as="geometry"/>
                </mxCell>
                <mxCell id="45" value="Некачественные данные&lt;br&gt;(значительный риск)" style="rounded=0;whiteSpace=wrap;html=1;fillColor=#fa6800;fontColor=#000000;strokeColor=#C73500;" vertex="1" parent="1">
                    <mxGeometry x="920" y="435" width="150" height="60" as="geometry"/>
                </mxCell>
                <mxCell id="46" value="Ошибки в ПДн (неверный телефон/email) нарушают 152-ФЗ, мешают коммуникации. Ошибки в финансовых данных ведут к сбоям процессов" style="rounded=0;whiteSpace=wrap;html=1;" vertex="1" parent="1">
                    <mxGeometry x="1150" y="435" width="330" height="60" as="geometry"/>
                </mxCell>
                <mxCell id="50" style="edgeStyle=none;html=1;entryX=0;entryY=0.5;entryDx=0;entryDy=0;" edge="1" parent="1" source="51" target="52">
                    <mxGeometry relative="1" as="geometry"/>
                </mxCell>
                <mxCell id="51" value="Утечка данных&lt;br&gt;(критический риск)" style="rounded=0;whiteSpace=wrap;html=1;fillColor=#e51400;fontColor=#ffffff;strokeColor=#B20000;" vertex="1" parent="1">
                    <mxGeometry x="920" y="525" width="150" height="60" as="geometry"/>
                </mxCell>
                <mxCell id="52" value="Прямая угроза репутации компании, оборотные штрафы по 152-ФЗ, судебные иски от клиентов, потеря доверия" style="rounded=0;whiteSpace=wrap;html=1;" vertex="1" parent="1">
                    <mxGeometry x="1150" y="525" width="330" height="60" as="geometry"/>
                </mxCell>
                <mxCell id="58" style="edgeStyle=none;html=1;" edge="1" parent="1" source="59" target="60">
                    <mxGeometry relative="1" as="geometry"/>
                </mxCell>
                <mxCell id="59" value="Искажение данных&lt;br&gt;(критический риск)" style="rounded=0;whiteSpace=wrap;html=1;fillColor=#e51400;fontColor=#ffffff;strokeColor=#B20000;" vertex="1" parent="1">
                    <mxGeometry x="920" y="620" width="150" height="60" as="geometry"/>
                </mxCell>
                <mxCell id="60" value="Саботаж критически важных систем или процессов" style="rounded=0;whiteSpace=wrap;html=1;" vertex="1" parent="1">
                    <mxGeometry x="1150" y="620" width="330" height="60" as="geometry"/>
                </mxCell>
                <mxCell id="61" style="edgeStyle=none;html=1;entryX=0;entryY=0.5;entryDx=0;entryDy=0;" edge="1" parent="1" source="62" target="63">
                    <mxGeometry relative="1" as="geometry"/>
                </mxCell>
                <mxCell id="62" value="Потеря данных&lt;br&gt;&lt;span style=&quot;color: rgb(255, 255, 255);&quot;&gt;(критический риск)&lt;/span&gt;" style="rounded=0;whiteSpace=wrap;html=1;fillColor=#e51400;fontColor=#ffffff;strokeColor=#B20000;" vertex="1" parent="1">
                    <mxGeometry x="920" y="710" width="150" height="60" as="geometry"/>
                </mxCell>
                <mxCell id="63" value="Необратимая утрата уникальных активов, ключей доступа к критическим системам. Восстановление может быть невозможно" style="rounded=0;whiteSpace=wrap;html=1;" vertex="1" parent="1">
                    <mxGeometry x="1150" y="710" width="330" height="60" as="geometry"/>
                </mxCell>
                <mxCell id="64" style="edgeStyle=none;html=1;entryX=0;entryY=0.5;entryDx=0;entryDy=0;" edge="1" parent="1" source="65" target="66">
                    <mxGeometry relative="1" as="geometry"/>
                </mxCell>
                <mxCell id="65" value="Некачественные данные&lt;br&gt;&lt;span style=&quot;color: rgb(255, 255, 255);&quot;&gt;(критический риск)&lt;/span&gt;" style="rounded=0;whiteSpace=wrap;html=1;fillColor=#e51400;fontColor=#ffffff;strokeColor=#B20000;" vertex="1" parent="1">
                    <mxGeometry x="920" y="800" width="150" height="60" as="geometry"/>
                </mxCell>
                <mxCell id="66" value="Ошибка в ключе шифрования или алгоритме управления критической системой. Потеря доступа к данным" style="rounded=0;whiteSpace=wrap;html=1;" vertex="1" parent="1">
                    <mxGeometry x="1150" y="800" width="330" height="60" as="geometry"/>
                </mxCell>
                <mxCell id="67" style="edgeStyle=none;html=1;entryX=0;entryY=0.5;entryDx=0;entryDy=0;" edge="1" parent="1" source="68" target="69">
                    <mxGeometry relative="1" as="geometry"/>
                </mxCell>
                <mxCell id="68" value="Утечка данных&lt;br&gt;(критический риск)" style="rounded=0;whiteSpace=wrap;html=1;fillColor=#e51400;fontColor=#ffffff;strokeColor=#B20000;" vertex="1" parent="1">
                    <mxGeometry x="920" y="890" width="150" height="60" as="geometry"/>
                </mxCell>
                <mxCell id="69" value="Крупные финансовые и юридические последствия" style="rounded=0;whiteSpace=wrap;html=1;" vertex="1" parent="1">
                    <mxGeometry x="1150" y="890" width="330" height="60" as="geometry"/>
                </mxCell>
            </root>
        </mxGraphModel>
    </diagram>
</mxfile>